<?xml version="1.0" encoding="utf-8"?>
<!-- Generator: Adobe Illustrator 22.0.1, SVG Export Plug-In . SVG Version: 6.00 Build 0)  -->
<svg version="1.1" xmlns="http://www.w3.org/2000/svg" xmlns:xlink="http://www.w3.org/1999/xlink" x="0px" y="0px"
	 viewBox="0 0 794 1366" style="enable-background:new 0 0 794 1366;" xml:space="preserve">
<style type="text/css">
	.st0{fill:#FFD4D5;stroke:#FFD4D5;stroke-miterlimit:10;}
	.st1{fill:#FFD4D5;}
	.st2{fill:#453400;stroke:#000000;stroke-miterlimit:10;}
	.st3{stroke:#000000;stroke-miterlimit:10;}
	.st4{fill:#FFFFFF;}
	.st5{fill:#453400;}
	.st6{fill:#FFFFFF;stroke:#FFD4D5;stroke-miterlimit:10;}
	.st7{fill:#FFD6D5;stroke:#FFD4D5;stroke-miterlimit:10;}
	.st8{fill:#EADFDF;stroke:#DCDFE5;stroke-miterlimit:10;}
	.st9{fill:#EADFDF;stroke:#EADFDF;stroke-miterlimit:10;}
	.st10{fill:#14276D;stroke:#14276D;stroke-miterlimit:10;}
	.st11{fill:#6D6767;stroke:#6D6767;stroke-miterlimit:10;}
	.st12{fill:#140C0A;stroke:#000102;stroke-miterlimit:10;}
</style>
<g id="Layer_1">
</g>
<g id="Layer_2">
	<path class="st0" d="M260.5,958.5h-39c-6.6,0-12-5.4-12-12v-226c0-6.6,5.4-12,12-12h39c6.6,0,12,5.4,12,12v226
		C272.5,953.1,267.1,958.5,260.5,958.5z"/>
	<g>
		<g id="ear_left">
			<path class="st1" d="M275.2,425c-5.9,0-10.7-10.1-10.7-22.5c0-12.4,4.8-22.5,10.7-22.5c5.9,0,10.7,10.1,10.7,22.5
				C285.9,414.9,281.1,425,275.2,425z"/>
			<path class="st1" d="M275.2,380.6c5.5,0,10.2,10.1,10.2,22s-4.7,22-10.2,22s-10.2-10.1-10.2-22S269.7,380.6,275.2,380.6
				 M275.2,379.6c-6.2,0-11.2,10.3-11.2,23c0,12.7,5,23,11.2,23c6.2,0,11.2-10.3,11.2-23C286.4,389.8,281.4,379.6,275.2,379.6
				L275.2,379.6z"/>
		</g>
		<g id="ear_right">
			<path class="st1" d="M517.8,425c-5.9,0-10.7-10.1-10.7-22.5c0-12.4,4.8-22.5,10.7-22.5c5.9,0,10.7,10.1,10.7,22.5
				C528.5,414.9,523.7,425,517.8,425z"/>
			<path class="st1" d="M517.8,380.6c5.5,0,10.2,10.1,10.2,22s-4.7,22-10.2,22s-10.2-10.1-10.2-22S512.2,380.6,517.8,380.6
				 M517.8,379.6c-6.2,0-11.2,10.3-11.2,23c0,12.7,5,23,11.2,23s11.2-10.3,11.2-23C529,389.8,524,379.6,517.8,379.6L517.8,379.6z"/>
		</g>
		<g id="Face">
			<path class="st1" d="M386.5,544.4c-60.4,0-109.5-49.1-109.5-109.5v-64.8c0-60.4,49.1-109.5,109.5-109.5h20.1
				c60.4,0,109.5,49.1,109.5,109.5v64.8c0,60.4-49.1,109.5-109.5,109.5H386.5z"/>
			<path class="st1" d="M406.6,261.1c29,0,56.3,11.4,77,32c20.6,20.6,32,48,32,77v64.8c0,29-11.4,56.3-32,77c-20.6,20.6-48,32-77,32
				h-20.1c-29,0-56.3-11.4-77-32s-32-48-32-77v-64.8c0-29,11.4-56.3,32-77c20.6-20.6,48-32,77-32H406.6 M406.6,260.1h-20.1
				c-60.5,0-110,49.5-110,110v64.8c0,60.5,49.5,110,110,110h20.1c60.5,0,110-49.5,110-110v-64.8
				C516.6,309.6,467.1,260.1,406.6,260.1L406.6,260.1z"/>
		</g>
		<path id="Hair" class="st2" d="M505.3,344.9c-107.7-50.5-157.5-50.8-111.4-33.4c129.3,48.8-68-6.4-109.6,21.7
			c-36.7,24.8,31.1-85.7,101-87.7C473.7,242.9,553.5,367.5,505.3,344.9z"/>
		<path id="Eye_Left" class="st3" d="M343.1,391.6h-4.5c-6.6,0-12-5.4-12-12v-13.5c0-6.6,5.4-12,12-12h4.5c6.6,0,12,5.4,12,12v13.5
			C355.1,386.2,349.7,391.6,343.1,391.6z"/>
		<path id="Eye_Left_2_" class="st3" d="M451.8,391.6h-4.5c-6.6,0-12-5.4-12-12v-13.5c0-6.6,5.4-12,12-12h4.5c6.6,0,12,5.4,12,12
			v13.5C463.8,386.2,458.4,391.6,451.8,391.6z"/>
		<g id="Eye_White_Right">
			<path class="st4" d="M340.8,375.7c-4,0-7.3-3.3-7.3-7.3v-2.8c0-4,3.3-7.3,7.3-7.3c4,0,7.3,3.3,7.3,7.3v2.8
				C348.1,372.5,344.8,375.7,340.8,375.7z"/>
			<path class="st1" d="M340.8,358.8c3.7,0,6.8,3,6.8,6.8v2.8c0,3.7-3,6.8-6.8,6.8c-3.7,0-6.8-3-6.8-6.8v-2.8
				C334.1,361.9,337.1,358.8,340.8,358.8 M340.8,357.8L340.8,357.8c-4.3,0-7.8,3.5-7.8,7.8v2.8c0,4.3,3.5,7.8,7.8,7.8h0
				c4.3,0,7.8-3.5,7.8-7.8v-2.8C348.6,361.3,345.1,357.8,340.8,357.8L340.8,357.8z"/>
		</g>
		<g id="Eye_WHite_Left">
			<path class="st4" d="M449.6,375.7c-4,0-7.3-3.3-7.3-7.3v-2.8c0-4,3.3-7.3,7.3-7.3c4,0,7.3,3.3,7.3,7.3v2.8
				C456.9,372.5,453.6,375.7,449.6,375.7z"/>
			<path class="st1" d="M449.6,358.8c3.7,0,6.8,3,6.8,6.8v2.8c0,3.7-3,6.8-6.8,6.8s-6.8-3-6.8-6.8v-2.8
				C442.8,361.9,445.9,358.8,449.6,358.8 M449.6,357.8c-4.3,0-7.8,3.5-7.8,7.8v2.8c0,4.3,3.5,7.8,7.8,7.8c4.3,0,7.8-3.5,7.8-7.8
				v-2.8C457.4,361.3,453.9,357.8,449.6,357.8L449.6,357.8z"/>
		</g>
		<g id="Eyebrow_Right">
			<polygon class="st5" points="322.9,348.5 357.8,340 359.5,346.3 324.6,354.8 			"/>
			<path class="st1" d="M357.5,340.6l1.4,5.4l-33.9,8.3l-1.4-5.4L357.5,340.6 M358.2,339.4l-35.9,8.8l1.9,7.3l35.9-8.8L358.2,339.4
				L358.2,339.4z"/>
		</g>
		<g id="Eyebrow_Left">
			<polygon class="st5" points="431.7,346.8 433.1,340.5 468.3,348 466.8,354.3 			"/>
			<path class="st1" d="M433.5,341l34.2,7.3l-1.2,5.4l-34.2-7.3L433.5,341 M432.7,339.9l-1.7,7.3l36.1,7.7l1.7-7.3L432.7,339.9
				L432.7,339.9z"/>
		</g>
		<path id="Mouth" class="st6" d="M443.5,476.5c0,16.9-21.1,30.5-47.2,30.5s-47.2-13.7-47.2-30.5"/>
		<polygon class="st7" points="429.5,616.5 358.7,616.5 360.7,532 431.5,532 		"/>
	</g>
	<path class="st0" d="M580.5,958.5h-39c-6.6,0-12-5.4-12-12v-226c0-6.6,5.4-12,12-12h39c6.6,0,12,5.4,12,12v226
		C592.5,953.1,587.1,958.5,580.5,958.5z"/>
	<path class="st0" d="M241,953l30.5,0.5c-0.3,16.6-13.9,30-30.5,30c-16.7,0-30.5-13.8-30.5-30.5H241z"/>
	<path class="st8" d="M332.5,1227.5h-44c-6.6,0-12-5.4-12-12v-31c0-6.6,5.4-12,12-12h44c6.6,0,12,5.4,12,12v31
		C344.5,1222.1,339.1,1227.5,332.5,1227.5z"/>
	<path class="st8" d="M504.5,1227.5h-44c-6.6,0-12-5.4-12-12v-31c0-6.6,5.4-12,12-12h44c6.6,0,12,5.4,12,12v31
		C516.5,1222.1,511.1,1227.5,504.5,1227.5z"/>
	<path class="st9" d="M504.5,1227.5h-44c-6.6,0-12-5.4-12-12v-31c0-6.6,5.4-12,12-12h44c6.6,0,12,5.4,12,12v31
		C516.5,1222.1,511.1,1227.5,504.5,1227.5z"/>
	<rect x="276.5" y="928.5" class="st10" width="69" height="258"/>
	<path class="st0" d="M561,953l30.5,0.5c-0.3,16.6-13.9,30-30.5,30c-16.7,0-30.5-13.8-30.5-30.5H561z"/>
	<rect x="276.5" y="862.3" class="st10" width="241" height="93.1"/>
	<rect x="447.5" y="928.5" class="st10" width="69" height="258"/>
	<rect x="242.5" y="1216.5" transform="matrix(-1 -1.224647e-16 1.224647e-16 -1 586 2457)" class="st11" width="101" height="24"/>
	<path class="st12" d="M240.6,1240.3c-0.2-25.7,14.7-46.6,33.2-46.8s33.8,20.5,34,46.2"/>
	<rect x="448.5" y="1215.5" transform="matrix(-1 -1.224647e-16 1.224647e-16 -1 988 2455)" class="st11" width="91" height="24"/>
	<path class="st12" d="M482.6,1239.3c-0.2-25.7,14.7-46.6,33.2-46.8c18.6-0.2,33.8,20.5,34,46.2"/>
</g>
<g id="Layer_3">
	<path class="st3" d="M435.1,546.7l-10.6,17.9l-30.8,52.1l-27.5-51.4l-9.3-17.4c-88.9,18.6-155.4,94.7-155.4,185.8h76.6l-0.6,135.8
		h242l0.6-135.8h76.4C596.5,640.5,526.9,563,435.1,546.7z"/>
</g>
</svg>
