<?xml version="1.0" encoding="utf-8"?>
<!-- Generator: Adobe Illustrator 22.0.1, SVG Export Plug-In . SVG Version: 6.00 Build 0)  -->
<svg version="1.1" xmlns="http://www.w3.org/2000/svg" xmlns:xlink="http://www.w3.org/1999/xlink" x="0px" y="0px"
	 viewBox="0 0 332.8 788.8" style="enable-background:new 0 0 332.8 788.8;" xml:space="preserve">
<style type="text/css">
	.st0{fill:#FFD4D5;stroke:#FFD4D5;stroke-miterlimit:10;}
	.st1{fill:#FFD4D5;}
	.st2{fill:#453400;stroke:#000000;stroke-miterlimit:10;}
	.st3{stroke:#000000;stroke-miterlimit:10;}
	.st4{fill:#FFFFFF;}
	.st5{fill:#453400;}
	.st6{fill:#FFFFFF;stroke:#FFD4D5;stroke-miterlimit:10;}
	.st7{fill:#FFD6D5;stroke:#FFD4D5;stroke-miterlimit:10;}
	.st8{fill:#EADFDF;stroke:#DCDFE5;stroke-miterlimit:10;}
	.st9{fill:#EADFDF;stroke:#EADFDF;stroke-miterlimit:10;}
	.st10{fill:#14276D;stroke:#14276D;stroke-miterlimit:10;}
	.st11{fill:#6D6767;stroke:#6D6767;stroke-miterlimit:10;}
	.st12{fill:#140C0A;stroke:#000102;stroke-miterlimit:10;}
</style>
<g id="Layer_1">
</g>
<g id="Layer_2">
	<path class="st0" d="M59.5,546.3H36.8c-6.6,0-12-5.4-12-12V373.2c0-6.6,5.4-12,12-12h22.7c6.6,0,12,5.4,12,12v161.1
		C71.5,540.9,66.1,546.3,59.5,546.3z"/>
	<g>
		<g id="ear_left">
			<path class="st1" d="M73.5,151.2c-4.3,0-7.8-7.4-7.8-16.5s3.5-16.5,7.8-16.5s7.8,7.4,7.8,16.5S77.8,151.2,73.5,151.2z"/>
			<path class="st1" d="M73.5,118.6c4,0,7.3,7.3,7.3,16c0,8.7-3.3,16-7.3,16s-7.3-7.3-7.3-16C66.2,126,69.5,118.6,73.5,118.6
				 M73.5,117.6c-4.6,0-8.3,7.6-8.3,17s3.7,17,8.3,17c4.6,0,8.3-7.6,8.3-17S78.1,117.6,73.5,117.6L73.5,117.6z"/>
		</g>
		<g id="ear_right">
			<path class="st1" d="M253.1,151.2c-4.3,0-7.8-7.4-7.8-16.5s3.5-16.5,7.8-16.5c4.3,0,7.8,7.4,7.8,16.5S257.4,151.2,253.1,151.2z"
				/>
			<path class="st1" d="M253.1,118.6c4,0,7.3,7.3,7.3,16c0,8.7-3.3,16-7.3,16c-4,0-7.3-7.3-7.3-16
				C245.8,126,249.1,118.6,253.1,118.6 M253.1,117.6c-4.6,0-8.3,7.6-8.3,17s3.7,17,8.3,17c4.6,0,8.3-7.6,8.3-17
				S257.7,117.6,253.1,117.6L253.1,117.6z"/>
		</g>
		<g id="Face">
			<path class="st1" d="M163.3,239.6c-48.7,0-88.4-39.7-88.4-88.4v-33.1c0-48.7,39.7-88.4,88.4-88.4s88.4,39.7,88.4,88.4v33.1
				C251.7,199.9,212.1,239.6,163.3,239.6z"/>
			<path class="st1" d="M163.3,30.2c23.4,0,45.4,9.2,62.1,25.8s25.8,38.7,25.8,62.1v33.1c0,23.4-9.2,45.4-25.8,62.1
				c-16.7,16.7-38.7,25.8-62.1,25.8c-23.4,0-45.4-9.2-62.1-25.8c-16.7-16.7-25.8-38.7-25.8-62.1v-33.1c0-23.4,9.2-45.4,25.8-62.1
				C117.9,39.3,139.9,30.2,163.3,30.2 M163.3,29.2L163.3,29.2c-48.9,0-88.9,40-88.9,88.9v33.1c0,48.9,40,88.9,88.9,88.9h0
				c48.9,0,88.9-40,88.9-88.9v-33.1C252.2,69.2,212.2,29.2,163.3,29.2L163.3,29.2z"/>
		</g>
		<path id="Hair" class="st2" d="M243.8,92c-79.8-37.4-116.6-37.6-82.5-24.7c95.8,36.2-50.4-4.7-81.2,16.1
			C53,101.7,103.3,19.9,155,18.4C220.5,16.4,279.6,108.7,243.8,92z"/>
		<path id="Eye_Left" class="st3" d="M122.1,126.5L122.1,126.5c-5.8,0-10.5-4.7-10.5-10.5v-6.7c0-5.8,4.7-10.5,10.5-10.5h0
			c5.8,0,10.5,4.7,10.5,10.5v6.7C132.6,121.8,127.9,126.5,122.1,126.5z"/>
		<path id="Eye_Left_2_" class="st3" d="M202.6,126.5L202.6,126.5c-5.8,0-10.5-4.7-10.5-10.5v-6.7c0-5.8,4.7-10.5,10.5-10.5h0
			c5.8,0,10.5,4.7,10.5,10.5v6.7C213.1,121.8,208.4,126.5,202.6,126.5z"/>
		<g id="Eye_White_Right">
			<path class="st4" d="M122.1,114.7c-2.9,0-5.3-2.4-5.3-5.3v-2.1c0-2.9,2.4-5.3,5.3-5.3s5.3,2.4,5.3,5.3v2.1
				C127.3,112.3,125,114.7,122.1,114.7z"/>
			<path class="st1" d="M122.1,102.5c2.6,0,4.8,2.1,4.8,4.8v2.1c0,2.6-2.1,4.8-4.8,4.8c-2.6,0-4.8-2.1-4.8-4.8v-2.1
				C117.3,104.7,119.4,102.5,122.1,102.5 M122.1,101.5L122.1,101.5c-3.2,0-5.8,2.6-5.8,5.8v2.1c0,3.2,2.6,5.8,5.8,5.8h0
				c3.2,0,5.8-2.6,5.8-5.8v-2.1C127.8,104.1,125.2,101.5,122.1,101.5L122.1,101.5z"/>
		</g>
		<g id="Eye_WHite_Left">
			<path class="st4" d="M202.6,114.7c-2.9,0-5.3-2.4-5.3-5.3v-2.1c0-2.9,2.4-5.3,5.3-5.3s5.3,2.4,5.3,5.3v2.1
				C207.8,112.3,205.5,114.7,202.6,114.7z"/>
			<path class="st1" d="M202.6,102.5c2.6,0,4.8,2.1,4.8,4.8v2.1c0,2.6-2.1,4.8-4.8,4.8c-2.6,0-4.8-2.1-4.8-4.8v-2.1
				C197.8,104.7,200,102.5,202.6,102.5 M202.6,101.5c-3.2,0-5.8,2.6-5.8,5.8v2.1c0,3.2,2.6,5.8,5.8,5.8c3.2,0,5.8-2.6,5.8-5.8v-2.1
				C208.3,104.1,205.8,101.5,202.6,101.5L202.6,101.5z"/>
		</g>
		<g id="Eyebrow_Right">
			<polygon class="st5" points="109,94.7 134.6,88.5 135.7,92.9 110.1,99.2 			"/>
			<path class="st1" d="M134.2,89.1l0.9,3.5l-24.6,6l-0.9-3.5L134.2,89.1 M134.9,87.9l-26.6,6.5l1.4,5.4l26.6-6.5L134.9,87.9
				L134.9,87.9z"/>
		</g>
		<g id="Eyebrow_Left">
			<polygon class="st5" points="189.5,93.3 190.5,88.8 216.3,94.3 215.3,98.8 			"/>
			<path class="st1" d="M190.9,89.4l24.8,5.3l-0.8,3.5l-24.8-5.3L190.9,89.4 M190.1,88.2l-1.2,5.4l26.8,5.7l1.2-5.4L190.1,88.2
				L190.1,88.2z"/>
		</g>
		<path id="Mouth" class="st6" d="M198.1,189.4c0,12.5-15.6,22.6-34.9,22.6s-34.9-10.1-34.9-22.6"/>
		<polygon class="st7" points="187.7,293.1 135.3,293.1 136.8,230.5 189.2,230.5 		"/>
	</g>
	<path class="st0" d="M296.4,546.3h-22.7c-6.6,0-12-5.4-12-12V373.2c0-6.6,5.4-12,12-12h22.7c6.6,0,12,5.4,12,12v161.1
		C308.4,540.9,303,546.3,296.4,546.3z"/>
	<path class="st0" d="M48.1,542.3l22.6,0.3c-0.2,12.3-10.3,22.2-22.6,22.2c-12.4,0-22.6-10.2-22.6-22.6H48.1z"/>
	<path class="st8" d="M112.8,745.5H86.4c-6.6,0-12-5.4-12-12v-16.7c0-6.6,5.4-12,12-12h26.4c6.6,0,12,5.4,12,12v16.7
		C124.8,740.1,119.4,745.5,112.8,745.5z"/>
	<path class="st8" d="M240.1,745.5h-26.4c-6.6,0-12-5.4-12-12v-16.7c0-6.6,5.4-12,12-12h26.4c6.6,0,12,5.4,12,12v16.7
		C252.1,740.1,246.7,745.5,240.1,745.5z"/>
	<path class="st9" d="M240.1,745.5h-26.4c-6.6,0-12-5.4-12-12v-16.7c0-6.6,5.4-12,12-12h26.4c6.6,0,12,5.4,12,12v16.7
		C252.1,740.1,246.7,745.5,240.1,745.5z"/>
	<rect x="74.4" y="524.1" class="st10" width="51.1" height="191.1"/>
	<path class="st0" d="M285.1,542.3l22.6,0.3c-0.2,12.3-10.3,22.2-22.6,22.2c-12.4,0-22.6-10.2-22.6-22.6H285.1z"/>
	<rect x="74.4" y="475.1" class="st10" width="178.5" height="68.9"/>
	<rect x="201.1" y="524.1" class="st10" width="51.1" height="191.1"/>
	
		<rect x="49.2" y="737.4" transform="matrix(-1 -1.224647e-16 1.224647e-16 -1 173.2868 1492.5524)" class="st11" width="74.8" height="17.8"/>
	<path class="st12" d="M47.8,755c-0.2-19,10.9-34.5,24.6-34.7s25,15.2,25.2,34.2"/>
	
		<rect x="201.8" y="736.6" transform="matrix(-1 -1.224647e-16 1.224647e-16 -1 470.9704 1491.0714)" class="st11" width="67.4" height="17.8"/>
	<path class="st12" d="M227,754.3c-0.2-19,10.9-34.5,24.6-34.7s25,15.2,25.2,34.2"/>
</g>
<g id="Layer_3">
	<path class="st3" d="M191.9,241.4l-7.8,13.3l-22.8,38.6l-20.3-38.1l-6.9-12.9C68.2,256,18.9,312.4,18.9,379.9h56.7l-0.4,100.6
		h179.2l0.4-100.6h56.6C311.4,310.9,259.9,253.5,191.9,241.4z"/>
</g>
</svg>
